<svg width="142" height="40" viewBox="0 0 142 40" fill="none" xmlns="http://www.w3.org/2000/svg">
<path d="M1.04004 31.209H3.42773V11.4629H1.04004V10.6719H16.6406V14.9639H15.8496V11.4629H4.21875V20.6914H13.6816V21.5117H4.21875V31.209H6.60645V32H1.04004V31.209ZM19.5557 31.209H21.9434V16.9414H19.5557V16.1504H22.7344V31.209H25.1221V32H19.5557V31.209ZM22.7344 11.1699H21.9434V9.14844H22.7344V11.1699ZM28.4912 31.209H30.8789V16.9414H28.4912V16.1504H31.5527L31.6553 19.417C32.1338 18.2842 32.832 17.4102 33.75 16.7949C34.668 16.1699 35.8008 15.8574 37.1484 15.8574C38.877 15.8574 40.1709 16.4043 41.0303 17.498C41.8994 18.582 42.334 20.3057 42.334 22.6689V31.209H44.7217V32H39.1553V31.209H41.543V22.6396C41.543 20.4424 41.1475 18.8945 40.3564 17.9961C39.5752 17.0977 38.5107 16.6484 37.1631 16.6484C35.4541 16.6484 34.165 17.1611 33.2959 18.1865C32.4268 19.2021 31.8848 20.5059 31.6699 22.0977V31.209H34.0576V32H28.4912V31.209ZM54.668 32.3076C52.8613 32.3076 51.2988 31.5801 49.9805 30.125C48.6719 28.6602 48.0176 26.8438 48.0176 24.6758V23.7383C48.0176 21.4629 48.6523 19.583 49.9219 18.0986C51.1914 16.6045 52.7588 15.8574 54.624 15.8574C56.4111 15.8574 57.8662 16.4434 58.9893 17.6152C60.1221 18.7871 60.6885 20.3594 60.6885 22.332V23.5479H48.8086V23.7383V24.6758C48.8086 26.5898 49.3701 28.2109 50.4932 29.5391C51.6162 30.8574 53.0078 31.5166 54.668 31.5166C55.8496 31.5166 56.8359 31.3555 57.627 31.0332C58.4277 30.7109 59.1113 30.2275 59.6777 29.583L60.1025 30.1982C59.4775 30.8916 58.7158 31.4189 57.8174 31.7803C56.9287 32.1318 55.8789 32.3076 54.668 32.3076ZM54.624 16.6484C53.0518 16.6484 51.7432 17.2246 50.6982 18.377C49.6533 19.5195 49.0625 20.9502 48.9258 22.6689L48.9697 22.7568H59.8975V22.2734C59.8975 20.6621 59.4092 19.3242 58.4326 18.2598C57.4561 17.1855 56.1865 16.6484 54.624 16.6484ZM63.8525 18.0107V16.1504H68.8184L69.0967 18.4502C69.5459 17.6396 70.0977 17.0049 70.752 16.5459C71.416 16.0869 72.1729 15.8574 73.0225 15.8574C73.2471 15.8574 73.4766 15.877 73.7109 15.916C73.9551 15.9453 74.1406 15.9795 74.2676 16.0186L73.8867 18.6992L72.2461 18.6113C71.4844 18.6113 70.8447 18.792 70.3271 19.1533C69.8096 19.5049 69.4092 20.0029 69.126 20.6475V29.7441L71.5137 30.1543V32H63.8525V30.1543L66.2402 29.7441V18.4209L63.8525 18.0107ZM83.2178 32.3076C81.0107 32.3076 79.2529 31.5752 77.9443 30.1104C76.6455 28.6357 75.9961 26.7266 75.9961 24.3828V23.7383C75.9961 21.4824 76.665 19.6074 78.0029 18.1133C79.3506 16.6094 80.9424 15.8574 82.7783 15.8574C84.9072 15.8574 86.5186 16.502 87.6123 17.791C88.7158 19.0801 89.2676 20.7988 89.2676 22.9473V24.749H78.9844L78.9404 24.8223C78.9697 26.3457 79.3555 27.6006 80.0977 28.5869C80.8398 29.5635 81.8799 30.0518 83.2178 30.0518C84.1943 30.0518 85.0488 29.915 85.7812 29.6416C86.5234 29.3584 87.1631 28.9727 87.7002 28.4844L88.8281 30.3594C88.2617 30.9062 87.5098 31.3701 86.5723 31.751C85.6445 32.1221 84.5264 32.3076 83.2178 32.3076ZM82.7783 18.1279C81.8115 18.1279 80.9863 18.5381 80.3027 19.3584C79.6191 20.1689 79.1992 21.1895 79.043 22.4199L79.0723 22.4932H86.3818V22.1123C86.3818 20.9795 86.0791 20.0322 85.4736 19.2705C84.8682 18.5088 83.9697 18.1279 82.7783 18.1279ZM102.466 32C102.378 31.5703 102.31 31.1846 102.261 30.8428C102.212 30.501 102.178 30.1592 102.158 29.8174C101.602 30.5303 100.903 31.126 100.063 31.6045C99.2334 32.0732 98.3447 32.3076 97.3975 32.3076C95.7471 32.3076 94.4922 31.9072 93.6328 31.1064C92.7734 30.2959 92.3438 29.1582 92.3438 27.6934C92.3438 26.1895 92.9492 25.0322 94.1602 24.2217C95.3809 23.4014 97.0508 22.9912 99.1699 22.9912H102.144V21.1455C102.144 20.2178 101.851 19.4854 101.265 18.9482C100.679 18.4014 99.8633 18.1279 98.8184 18.1279C98.0957 18.1279 97.4561 18.2207 96.8994 18.4062C96.3525 18.5918 95.9082 18.8457 95.5664 19.168L95.2588 20.8379H93.0322V17.7617C93.7549 17.1855 94.6289 16.7266 95.6543 16.3848C96.6797 16.0332 97.793 15.8574 98.9941 15.8574C100.791 15.8574 102.246 16.3164 103.359 17.2344C104.473 18.1523 105.029 19.4658 105.029 21.1748V28.8066C105.029 29.0117 105.029 29.2119 105.029 29.4072C105.039 29.6025 105.054 29.7979 105.073 29.9932L106.245 30.1543V32H102.466ZM97.8223 29.8906C98.7793 29.8906 99.6533 29.6611 100.444 29.2021C101.235 28.7432 101.802 28.1914 102.144 27.5469V24.9395H99.0674C97.8857 24.9395 96.9482 25.2129 96.2549 25.7598C95.5713 26.3066 95.2295 26.9707 95.2295 27.752C95.2295 28.4453 95.4443 28.9775 95.874 29.3486C96.3037 29.71 96.9531 29.8906 97.8223 29.8906ZM119.326 30.1104C118.809 30.833 118.174 31.3799 117.422 31.751C116.68 32.1221 115.815 32.3076 114.829 32.3076C112.896 32.3076 111.382 31.6094 110.288 30.2129C109.204 28.8066 108.662 26.9609 108.662 24.6758V24.3682C108.662 21.8193 109.204 19.7637 110.288 18.2012C111.382 16.6387 112.905 15.8574 114.858 15.8574C115.796 15.8574 116.621 16.0332 117.334 16.3848C118.057 16.7266 118.672 17.2246 119.18 17.8789V11.4189L116.792 11.0088V9.14844H119.18H122.065V29.7441L124.453 30.1543V32H119.561L119.326 30.1104ZM111.548 24.6758C111.548 26.2676 111.875 27.5469 112.529 28.5137C113.184 29.4805 114.194 29.9639 115.562 29.9639C116.421 29.9639 117.144 29.7686 117.729 29.3779C118.315 28.9873 118.799 28.4355 119.18 27.7227V20.3691C118.809 19.7051 118.325 19.1777 117.729 18.7871C117.134 18.3965 116.421 18.2012 115.591 18.2012C114.214 18.2012 113.193 18.7725 112.529 19.915C111.875 21.0576 111.548 22.542 111.548 24.3682V24.6758ZM138.794 21.1309H136.626L136.157 19.2266C135.806 18.8945 135.361 18.6309 134.824 18.4355C134.297 18.2305 133.696 18.1279 133.022 18.1279C131.997 18.1279 131.235 18.3525 130.737 18.8018C130.239 19.251 129.99 19.793 129.99 20.4277C129.99 21.0527 130.21 21.5459 130.649 21.9072C131.089 22.2686 131.982 22.5908 133.33 22.874C135.332 23.3037 136.821 23.8896 137.798 24.6318C138.774 25.3643 139.263 26.3506 139.263 27.5908C139.263 28.9971 138.691 30.1348 137.549 31.0039C136.416 31.873 134.932 32.3076 133.096 32.3076C131.895 32.3076 130.815 32.1709 129.858 31.8975C128.901 31.6143 128.047 31.209 127.295 30.6816L127.28 27.0635H129.448L129.99 29.1875C130.322 29.4902 130.771 29.71 131.338 29.8467C131.914 29.9834 132.5 30.0518 133.096 30.0518C134.121 30.0518 134.922 29.8467 135.498 29.4365C136.084 29.0166 136.377 28.4697 136.377 27.7959C136.377 27.1611 136.133 26.6387 135.645 26.2285C135.166 25.8184 134.253 25.4619 132.905 25.1592C130.981 24.7393 129.531 24.168 128.555 23.4453C127.578 22.7227 127.09 21.7461 127.09 20.5156C127.09 19.2266 127.637 18.1279 128.73 17.2197C129.834 16.3115 131.265 15.8574 133.022 15.8574C134.224 15.8574 135.303 16.0137 136.26 16.3262C137.217 16.6387 138.013 17.0732 138.647 17.6299L138.794 21.1309Z" fill="black"/>
</svg>
