<svg width="24" height="24" viewBox="0 0 24 24" fill="none" xmlns="http://www.w3.org/2000/svg">
<path d="M12.0102 0.937256C18.2893 0.934717 23.375 6.01792 23.375 12.2919C23.375 17.2533 20.1936 21.4707 15.7629 23.0195C15.1662 23.1693 15.2576 22.7453 15.2576 22.4558L15.2576 20.488C18.7031 20.8917 18.8428 18.6117 19.0738 18.2308C19.541 17.4335 20.6455 17.2304 20.3154 16.8496C19.5309 16.4459 18.7311 16.9511 17.8043 18.3197C17.134 19.3125 15.8264 19.1449 15.1637 18.9798C15.0189 18.3832 14.7092 17.85 14.2826 17.4361C17.8525 16.7962 19.3404 14.6177 19.3404 12.0279C19.3404 10.771 18.9266 9.61577 18.1141 8.68394C18.632 7.1478 18.0658 5.83257 17.9896 5.63706C16.5145 5.50503 14.9809 6.69331 14.8615 6.78726C14.0236 6.56128 13.0664 6.44194 11.9949 6.44194C10.9184 6.44194 9.95859 6.56636 9.11309 6.79487C8.82617 6.57651 7.4043 5.55581 6.0332 5.68022C5.95957 5.87573 5.40605 7.1605 5.89355 8.67632C5.0709 9.61069 4.65195 10.7761 4.65195 12.0355C4.65195 14.6304 6.15 16.8115 9.73008 17.4412C9.42343 17.7427 9.17995 18.1024 9.01386 18.4991C8.84776 18.8958 8.76238 19.3216 8.76269 19.7517L8.76269 22.6082C8.74238 22.8367 8.76269 23.0626 8.38183 23.0626C3.88515 21.5468 0.647851 17.299 0.647851 12.2945C0.647851 6.01792 5.73613 0.937255 12.0102 0.937256Z" fill="#4A5568"/>
</svg>
