<svg width="139" height="24" viewBox="0 0 139 24" fill="none" xmlns="http://www.w3.org/2000/svg">
<path d="M0.0400391 22.209H2.42773V2.46289H0.0400391V1.67188H15.6406V5.96387H14.8496V2.46289H3.21875V11.6914H12.6816V12.5117H3.21875V22.209H5.60645V23H0.0400391V22.209ZM18.5557 22.209H20.9434V7.94141H18.5557V7.15039H21.7344V22.209H24.1221V23H18.5557V22.209ZM21.7344 2.16992H20.9434V0.148438H21.7344V2.16992ZM27.4912 22.209H29.8789V7.94141H27.4912V7.15039H30.5527L30.6553 10.417C31.1338 9.28418 31.832 8.41016 32.75 7.79492C33.668 7.16992 34.8008 6.85742 36.1484 6.85742C37.877 6.85742 39.1709 7.4043 40.0303 8.49805C40.8994 9.58203 41.334 11.3057 41.334 13.6689V22.209H43.7217V23H38.1553V22.209H40.543V13.6396C40.543 11.4424 40.1475 9.89453 39.3564 8.99609C38.5752 8.09766 37.5107 7.64844 36.1631 7.64844C34.4541 7.64844 33.165 8.16113 32.2959 9.18652C31.4268 10.2021 30.8848 11.5059 30.6699 13.0977V22.209H33.0576V23H27.4912V22.209ZM53.668 23.3076C51.8613 23.3076 50.2988 22.5801 48.9805 21.125C47.6719 19.6602 47.0176 17.8438 47.0176 15.6758V14.7383C47.0176 12.4629 47.6523 10.583 48.9219 9.09863C50.1914 7.60449 51.7588 6.85742 53.624 6.85742C55.4111 6.85742 56.8662 7.44336 57.9893 8.61523C59.1221 9.78711 59.6885 11.3594 59.6885 13.332V14.5479H47.8086V14.7383V15.6758C47.8086 17.5898 48.3701 19.2109 49.4932 20.5391C50.6162 21.8574 52.0078 22.5166 53.668 22.5166C54.8496 22.5166 55.8359 22.3555 56.627 22.0332C57.4277 21.7109 58.1113 21.2275 58.6777 20.583L59.1025 21.1982C58.4775 21.8916 57.7158 22.4189 56.8174 22.7803C55.9287 23.1318 54.8789 23.3076 53.668 23.3076ZM53.624 7.64844C52.0518 7.64844 50.7432 8.22461 49.6982 9.37695C48.6533 10.5195 48.0625 11.9502 47.9258 13.6689L47.9697 13.7568H58.8975V13.2734C58.8975 11.6621 58.4092 10.3242 57.4326 9.25977C56.4561 8.18555 55.1865 7.64844 53.624 7.64844ZM62.8525 9.01074V7.15039H67.8184L68.0967 9.4502C68.5459 8.63965 69.0977 8.00488 69.752 7.5459C70.416 7.08691 71.1729 6.85742 72.0225 6.85742C72.2471 6.85742 72.4766 6.87695 72.7109 6.91602C72.9551 6.94531 73.1406 6.97949 73.2676 7.01855L72.8867 9.69922L71.2461 9.61133C70.4844 9.61133 69.8447 9.79199 69.3271 10.1533C68.8096 10.5049 68.4092 11.0029 68.126 11.6475V20.7441L70.5137 21.1543V23H62.8525V21.1543L65.2402 20.7441V9.4209L62.8525 9.01074ZM82.2178 23.3076C80.0107 23.3076 78.2529 22.5752 76.9443 21.1104C75.6455 19.6357 74.9961 17.7266 74.9961 15.3828V14.7383C74.9961 12.4824 75.665 10.6074 77.0029 9.11328C78.3506 7.60938 79.9424 6.85742 81.7783 6.85742C83.9072 6.85742 85.5186 7.50195 86.6123 8.79102C87.7158 10.0801 88.2676 11.7988 88.2676 13.9473V15.749H77.9844L77.9404 15.8223C77.9697 17.3457 78.3555 18.6006 79.0977 19.5869C79.8398 20.5635 80.8799 21.0518 82.2178 21.0518C83.1943 21.0518 84.0488 20.915 84.7812 20.6416C85.5234 20.3584 86.1631 19.9727 86.7002 19.4844L87.8281 21.3594C87.2617 21.9062 86.5098 22.3701 85.5723 22.751C84.6445 23.1221 83.5264 23.3076 82.2178 23.3076ZM81.7783 9.12793C80.8115 9.12793 79.9863 9.53809 79.3027 10.3584C78.6191 11.1689 78.1992 12.1895 78.043 13.4199L78.0723 13.4932H85.3818V13.1123C85.3818 11.9795 85.0791 11.0322 84.4736 10.2705C83.8682 9.50879 82.9697 9.12793 81.7783 9.12793ZM101.466 23C101.378 22.5703 101.31 22.1846 101.261 21.8428C101.212 21.501 101.178 21.1592 101.158 20.8174C100.602 21.5303 99.9033 22.126 99.0635 22.6045C98.2334 23.0732 97.3447 23.3076 96.3975 23.3076C94.7471 23.3076 93.4922 22.9072 92.6328 22.1064C91.7734 21.2959 91.3438 20.1582 91.3438 18.6934C91.3438 17.1895 91.9492 16.0322 93.1602 15.2217C94.3809 14.4014 96.0508 13.9912 98.1699 13.9912H101.144V12.1455C101.144 11.2178 100.851 10.4854 100.265 9.94824C99.6787 9.40137 98.8633 9.12793 97.8184 9.12793C97.0957 9.12793 96.4561 9.2207 95.8994 9.40625C95.3525 9.5918 94.9082 9.8457 94.5664 10.168L94.2588 11.8379H92.0322V8.76172C92.7549 8.18555 93.6289 7.72656 94.6543 7.38477C95.6797 7.0332 96.793 6.85742 97.9941 6.85742C99.791 6.85742 101.246 7.31641 102.359 8.23438C103.473 9.15234 104.029 10.4658 104.029 12.1748V19.8066C104.029 20.0117 104.029 20.2119 104.029 20.4072C104.039 20.6025 104.054 20.7979 104.073 20.9932L105.245 21.1543V23H101.466ZM96.8223 20.8906C97.7793 20.8906 98.6533 20.6611 99.4443 20.2021C100.235 19.7432 100.802 19.1914 101.144 18.5469V15.9395H98.0674C96.8857 15.9395 95.9482 16.2129 95.2549 16.7598C94.5713 17.3066 94.2295 17.9707 94.2295 18.752C94.2295 19.4453 94.4443 19.9775 94.874 20.3486C95.3037 20.71 95.9531 20.8906 96.8223 20.8906ZM118.326 21.1104C117.809 21.833 117.174 22.3799 116.422 22.751C115.68 23.1221 114.815 23.3076 113.829 23.3076C111.896 23.3076 110.382 22.6094 109.288 21.2129C108.204 19.8066 107.662 17.9609 107.662 15.6758V15.3682C107.662 12.8193 108.204 10.7637 109.288 9.20117C110.382 7.63867 111.905 6.85742 113.858 6.85742C114.796 6.85742 115.621 7.0332 116.334 7.38477C117.057 7.72656 117.672 8.22461 118.18 8.87891V2.41895L115.792 2.00879V0.148438H118.18H121.065V20.7441L123.453 21.1543V23H118.561L118.326 21.1104ZM110.548 15.6758C110.548 17.2676 110.875 18.5469 111.529 19.5137C112.184 20.4805 113.194 20.9639 114.562 20.9639C115.421 20.9639 116.144 20.7686 116.729 20.3779C117.315 19.9873 117.799 19.4355 118.18 18.7227V11.3691C117.809 10.7051 117.325 10.1777 116.729 9.78711C116.134 9.39648 115.421 9.20117 114.591 9.20117C113.214 9.20117 112.193 9.77246 111.529 10.915C110.875 12.0576 110.548 13.542 110.548 15.3682V15.6758ZM137.794 12.1309H135.626L135.157 10.2266C134.806 9.89453 134.361 9.63086 133.824 9.43555C133.297 9.23047 132.696 9.12793 132.022 9.12793C130.997 9.12793 130.235 9.35254 129.737 9.80176C129.239 10.251 128.99 10.793 128.99 11.4277C128.99 12.0527 129.21 12.5459 129.649 12.9072C130.089 13.2686 130.982 13.5908 132.33 13.874C134.332 14.3037 135.821 14.8896 136.798 15.6318C137.774 16.3643 138.263 17.3506 138.263 18.5908C138.263 19.9971 137.691 21.1348 136.549 22.0039C135.416 22.873 133.932 23.3076 132.096 23.3076C130.895 23.3076 129.815 23.1709 128.858 22.8975C127.901 22.6143 127.047 22.209 126.295 21.6816L126.28 18.0635H128.448L128.99 20.1875C129.322 20.4902 129.771 20.71 130.338 20.8467C130.914 20.9834 131.5 21.0518 132.096 21.0518C133.121 21.0518 133.922 20.8467 134.498 20.4365C135.084 20.0166 135.377 19.4697 135.377 18.7959C135.377 18.1611 135.133 17.6387 134.645 17.2285C134.166 16.8184 133.253 16.4619 131.905 16.1592C129.981 15.7393 128.531 15.168 127.555 14.4453C126.578 13.7227 126.09 12.7461 126.09 11.5156C126.09 10.2266 126.637 9.12793 127.73 8.21973C128.834 7.31152 130.265 6.85742 132.022 6.85742C133.224 6.85742 134.303 7.01367 135.26 7.32617C136.217 7.63867 137.013 8.07324 137.647 8.62988L137.794 12.1309Z" fill="black"/>
</svg>
